<svg width="91" height="54" viewBox="0 0 91 54" fill="none" xmlns="http://www.w3.org/2000/svg">
<path d="M0.330004 2.16001L44.08 52.84C44.201 52.9884 44.3535 53.1081 44.5264 53.1903C44.6994 53.2724 44.8885 53.3151 45.08 53.3151C45.2715 53.3151 45.4606 53.2724 45.6336 53.1903C45.8065 53.1081 45.959 52.9884 46.08 52.84L89.85 2.16001C90.0543 1.90949 90.1579 1.59187 90.1406 1.26911C90.1233 0.946339 89.9865 0.641582 89.7567 0.414278C89.5268 0.186974 89.2206 0.0534359 88.8977 0.0397051C88.5747 0.0259742 88.2583 0.133021 88.01 0.339998L46.01 37.23C45.7716 37.4375 45.4661 37.5518 45.15 37.5518C44.8339 37.5518 44.5285 37.4375 44.29 37.23L2.29 0.339998C2.04866 0.0800859 1.71395 -0.0732965 1.3595 -0.0864241C1.00506 -0.0995516 0.659915 0.0286742 0.400003 0.270021C0.140091 0.511368 -0.0132989 0.846058 -0.0264264 1.2005C-0.039554 1.55495 0.0886566 1.90009 0.330004 2.16001Z" fill="url(#paint0_linear_233_576)"/>
<defs>
<linearGradient id="paint0_linear_233_576" x1="-0.0273437" y1="-0.0873413" x2="98.8833" y2="4.58557" gradientUnits="userSpaceOnUse">
<stop stop-color="#FFEBBA"/>
<stop offset="1" stop-color="#F0C966"/>
</linearGradient>
</defs>
</svg>
