<svg width="270" height="237" viewBox="0 0 270 237" fill="none" xmlns="http://www.w3.org/2000/svg">
<g clip-path="url(#clip0_231_438)">
<path d="M120.06 217.58C65.3696 217.58 21.0596 172.99 21.0596 117.99C21.0596 62.99 65.3996 18.41 120.06 18.41C120.55 18.41 121.06 18.41 121.53 18.41C67.7096 19.41 24.3896 63.6 24.3896 117.97C24.3896 172.34 67.9196 216.75 121.92 217.54L120.06 217.58Z" fill="url(#paint0_linear_231_438)"/>
<path d="M116.75 221.85C139.411 221.911 161.484 214.639 179.67 201.12C164.087 214.913 144.853 223.912 124.278 227.036C103.704 230.16 82.6647 227.276 63.6897 218.73C44.7148 210.185 28.6112 196.342 17.3143 178.865C6.01739 161.388 0.0078125 141.02 0.0078125 120.21C0.0078125 99.3996 6.01739 79.032 17.3143 61.5549C28.6112 44.0778 44.7148 30.2348 63.6897 21.6895C82.6647 13.1443 103.704 10.2604 124.278 13.3844C144.853 16.5084 164.087 25.5074 179.67 39.3C161.484 25.7814 139.411 18.5093 116.75 18.57C59.3605 18.57 12.8205 64.08 12.8205 120.21C12.8205 176.34 59.3605 221.85 116.75 221.85Z" fill="url(#paint1_linear_231_438)"/>
<path d="M160.58 37.63L167.72 38.68L162.54 43.71L163.75 50.82L157.37 47.45L150.97 50.8L152.21 43.69L147.05 38.64L154.19 37.62L157.4 31.15L160.58 37.63Z" fill="url(#paint2_linear_231_438)"/>
<path d="M106.53 38.21L115.75 39.57L109.06 46.06L110.62 55.24L102.38 50.89L94.1201 55.21L95.7201 46.03L89.0601 39.51L98.2801 38.19L102.42 29.84L106.53 38.21Z" fill="url(#paint3_linear_231_438)"/>
<path d="M179.84 18.5399L184.77 19.2699L181.19 22.7399L182.02 27.6599L177.62 25.3299L173.2 27.6399L174.05 22.7299L170.49 19.2399L175.42 18.5299L177.64 14.0699L179.84 18.5399Z" fill="url(#paint4_linear_231_438)"/>
<path d="M77.6599 64.7L84.0298 65.64L79.4099 70.12L80.4799 76.47L74.7898 73.46L69.0898 76.44L70.1898 70.1L65.5898 65.6L71.9598 64.68L74.8198 58.92L77.6599 64.7Z" fill="url(#paint5_linear_231_438)"/>
<path d="M148.68 4.48L153.61 5.21L150.03 8.68L150.87 13.6L146.46 11.27L142.04 13.58L142.89 8.66L139.33 5.17L144.26 4.47L146.48 0L148.68 4.48Z" fill="url(#paint6_linear_231_438)"/>
<path d="M59.96 225.69L65.58 226.52L61.5 230.48L62.45 236.09L57.42 233.43L52.38 236.06L53.35 230.46L49.29 226.48L54.92 225.68L57.45 220.58L59.96 225.69Z" fill="url(#paint7_linear_231_438)"/>
<path d="M110.07 196.17L117.03 197.2L111.98 202.1L113.16 209.04L106.93 205.75L100.69 209.02L101.9 202.08L96.8701 197.16L103.84 196.16L106.97 189.85L110.07 196.17Z" fill="url(#paint8_linear_231_438)"/>
<path d="M156.63 226.23L161 226.87L157.83 229.95L158.57 234.31L154.66 232.24L150.75 234.29L151.5 229.94L148.34 226.84L152.72 226.22L154.68 222.26L156.63 226.23Z" fill="url(#paint9_linear_231_438)"/>
<path d="M187.26 39.63C188.779 39.63 190.01 38.3988 190.01 36.88C190.01 35.3612 188.779 34.13 187.26 34.13C185.741 34.13 184.51 35.3612 184.51 36.88C184.51 38.3988 185.741 39.63 187.26 39.63Z" fill="url(#paint10_linear_231_438)"/>
<path d="M162.84 20.309C164.343 20.0659 165.365 18.65 165.122 17.1465C164.879 15.6429 163.463 14.6209 161.96 14.864C160.456 15.107 159.434 16.5229 159.677 18.0265C159.92 19.53 161.336 20.552 162.84 20.309Z" fill="url(#paint11_linear_231_438)"/>
<path d="M74.47 47.74C76.6515 47.74 78.42 45.9715 78.42 43.79C78.42 41.6084 76.6515 39.84 74.47 39.84C72.2885 39.84 70.52 41.6084 70.52 43.79C70.52 45.9715 72.2885 47.74 74.47 47.74Z" fill="url(#paint12_linear_231_438)"/>
<path d="M137.58 30.49C137.58 29.9456 137.419 29.4136 137.116 28.9611C136.813 28.5087 136.383 28.1562 135.88 27.9484C135.377 27.7405 134.824 27.6866 134.29 27.7936C133.756 27.9005 133.266 28.1634 132.882 28.549C132.498 28.9346 132.237 29.4255 132.132 29.9596C132.027 30.4937 132.083 31.047 132.292 31.5493C132.502 32.0516 132.856 32.4804 133.31 32.7814C133.763 33.0824 134.296 33.242 134.84 33.24C135.568 33.2373 136.265 32.9464 136.778 32.431C137.292 31.9156 137.58 31.2176 137.58 30.49Z" fill="url(#paint13_linear_231_438)"/>
<path d="M120.92 222.3C118.58 223.43 153.73 220.11 149.41 184.56C149.41 184.56 146.96 193.61 137.66 194.83C128.36 196.05 133.67 216.18 120.92 222.3Z" fill="url(#paint14_linear_231_438)"/>
<path d="M182.87 66.95C182.72 68.95 193.05 42.39 170.48 31.95C170.48 31.95 175.21 37.45 171.95 43.95C168.69 50.45 183.67 56.72 182.87 66.95Z" fill="url(#paint15_linear_231_438)"/>
<path d="M153.25 219.3C154.87 219.18 194.04 215.61 193.55 236.54C193.55 236.54 193.05 230.29 183.81 234.04C174.57 237.79 168.06 231.82 163.81 226.04C161.26 222.548 157.491 220.142 153.25 219.3Z" fill="url(#paint16_linear_231_438)"/>
<path d="M183.37 41.16C184.13 42.07 202.07 64.38 211.04 56.03C211.04 56.03 208.04 58.18 205.09 51.79C202.14 45.4 196.27 44.24 191.61 44.23C188.605 44.1182 185.716 43.0418 183.37 41.16Z" fill="url(#paint17_linear_231_438)"/>
<path d="M165 210.37C165.59 209.85 178 207.37 182.25 214.16C182.25 214.16 183.38 211.75 180.69 208.52C180.69 208.52 193.45 212.29 193.28 200.52C193.11 188.75 195.73 184.77 200.34 184.11C204.95 183.45 203.22 188.6 203.22 188.6C203.22 188.6 206.94 186.77 205.01 178.48C203.08 170.19 188.84 171.98 185.34 174.65C181.84 177.32 176.19 180.95 178.42 195.09C178.42 195.09 172.35 190.66 175.56 182.16C175.56 182.16 170.68 184.6 171.56 193.65C172.44 202.7 165 210.37 165 210.37Z" fill="url(#paint18_linear_231_438)"/>
<path d="M158.67 203.25C158.167 202.872 157.564 202.651 156.936 202.615C156.308 202.58 155.683 202.732 155.141 203.052C154.599 203.371 154.165 203.844 153.892 204.411C153.619 204.978 153.52 205.613 153.609 206.236C153.697 206.859 153.968 207.442 154.387 207.911C154.807 208.38 155.356 208.714 155.965 208.87C156.574 209.027 157.216 208.999 157.81 208.791C158.404 208.583 158.922 208.203 159.3 207.7C159.552 207.367 159.735 206.987 159.84 206.583C159.945 206.179 159.968 205.758 159.91 205.344C159.851 204.931 159.712 204.533 159.499 204.173C159.286 203.814 159.004 203.5 158.67 203.25Z" fill="url(#paint19_linear_231_438)"/>
<path d="M78.98 228.01C78.4774 227.632 77.8739 227.411 77.2458 227.375C76.6177 227.34 75.9932 227.492 75.4513 227.812C74.9095 228.131 74.4746 228.604 74.2018 229.171C73.929 229.738 73.8304 230.373 73.9186 230.996C74.0068 231.619 74.2778 232.202 74.6972 232.671C75.1167 233.14 75.6658 233.473 76.2751 233.63C76.8844 233.787 77.5265 233.759 78.1201 233.551C78.7137 233.343 79.2322 232.963 79.61 232.46C80.1135 231.785 80.3298 230.939 80.2117 230.105C80.0937 229.272 79.651 228.518 78.98 228.01Z" fill="url(#paint20_linear_231_438)"/>
<path d="M102.07 183.49C101.567 183.112 100.964 182.891 100.336 182.855C99.7075 182.82 99.083 182.972 98.5412 183.292C97.9993 183.611 97.5645 184.085 97.2917 184.651C97.0188 185.218 96.9203 185.853 97.0085 186.476C97.0966 187.099 97.3676 187.682 97.7871 188.151C98.2065 188.62 98.7556 188.954 99.3649 189.11C99.9742 189.267 100.616 189.239 101.21 189.031C101.804 188.823 102.322 188.443 102.7 187.94C103.203 187.265 103.42 186.419 103.302 185.585C103.184 184.752 102.741 183.999 102.07 183.49Z" fill="url(#paint21_linear_231_438)"/>
<path d="M166.99 199.9C166.637 199.636 166.214 199.482 165.774 199.457C165.335 199.433 164.897 199.54 164.518 199.764C164.138 199.988 163.834 200.319 163.643 200.716C163.452 201.113 163.382 201.558 163.444 201.994C163.505 202.431 163.694 202.839 163.987 203.168C164.281 203.497 164.665 203.732 165.091 203.842C165.518 203.953 165.967 203.935 166.384 203.791C166.8 203.646 167.164 203.381 167.43 203.03C167.608 202.796 167.739 202.53 167.813 202.245C167.888 201.961 167.905 201.664 167.864 201.373C167.823 201.082 167.725 200.802 167.575 200.549C167.425 200.296 167.226 200.075 166.99 199.9Z" fill="url(#paint22_linear_231_438)"/>
<path d="M87.2602 201.91C86.9071 201.646 86.4835 201.492 86.043 201.468C85.6024 201.445 85.1649 201.552 84.7855 201.778C84.4062 202.003 84.1022 202.335 83.9119 202.733C83.7217 203.131 83.6537 203.577 83.7167 204.014C83.7797 204.45 83.9707 204.858 84.2657 205.186C84.5606 205.514 84.9463 205.747 85.3738 205.856C85.8013 205.965 86.2515 205.945 86.6674 205.798C87.0833 205.651 87.4462 205.383 87.7102 205.03C88.0641 204.557 88.2154 203.962 88.131 203.377C88.0466 202.792 87.7334 202.264 87.2602 201.91Z" fill="url(#paint23_linear_231_438)"/>
<path d="M159.21 196.4C158.812 196.214 158.368 196.15 157.933 196.216C157.499 196.281 157.094 196.474 156.768 196.769C156.443 197.064 156.212 197.449 156.104 197.875C155.997 198.301 156.018 198.749 156.164 199.163C156.31 199.578 156.576 199.94 156.927 200.203C157.278 200.467 157.7 200.622 158.138 200.647C158.577 200.672 159.013 200.567 159.393 200.345C159.772 200.124 160.077 199.795 160.27 199.4C160.4 199.134 160.476 198.844 160.493 198.549C160.51 198.253 160.468 197.957 160.369 197.678C160.271 197.398 160.117 197.142 159.918 196.922C159.719 196.703 159.478 196.525 159.21 196.4Z" fill="url(#paint24_linear_231_438)"/>
<path d="M181.29 216.1C180.919 215.929 180.506 215.871 180.103 215.934C179.699 215.997 179.323 216.177 179.023 216.453C178.722 216.729 178.509 217.088 178.411 217.485C178.314 217.881 178.336 218.298 178.475 218.682C178.613 219.066 178.862 219.401 179.191 219.643C179.519 219.886 179.912 220.026 180.32 220.047C180.728 220.067 181.132 219.966 181.483 219.756C181.833 219.547 182.114 219.239 182.29 218.87C182.407 218.623 182.473 218.355 182.486 218.081C182.499 217.808 182.458 217.535 182.365 217.278C182.272 217.02 182.129 216.784 181.945 216.582C181.76 216.38 181.538 216.216 181.29 216.1Z" fill="url(#paint25_linear_231_438)"/>
<path d="M188.57 217.78C188.199 217.608 187.785 217.549 187.381 217.612C186.977 217.674 186.601 217.855 186.299 218.131C185.998 218.407 185.785 218.767 185.687 219.164C185.59 219.561 185.612 219.978 185.751 220.362C185.891 220.747 186.141 221.081 186.47 221.324C186.799 221.566 187.193 221.706 187.601 221.725C188.01 221.744 188.415 221.642 188.765 221.431C189.115 221.22 189.395 220.91 189.57 220.54C189.686 220.293 189.753 220.026 189.765 219.753C189.778 219.481 189.737 219.209 189.644 218.952C189.551 218.696 189.408 218.46 189.224 218.259C189.039 218.058 188.817 217.895 188.57 217.78Z" fill="url(#paint26_linear_231_438)"/>
<path d="M190.32 214.98C190.724 215.04 191.137 214.979 191.507 214.805C191.876 214.631 192.186 214.351 192.397 214.001C192.608 213.652 192.711 213.247 192.693 212.839C192.674 212.431 192.535 212.037 192.293 211.708C192.051 211.378 191.718 211.128 191.334 210.988C190.95 210.848 190.533 210.825 190.136 210.921C189.739 211.018 189.379 211.23 189.102 211.53C188.825 211.831 188.644 212.206 188.58 212.61C188.537 212.88 188.549 213.156 188.613 213.421C188.678 213.687 188.794 213.937 188.956 214.158C189.118 214.378 189.322 214.564 189.556 214.705C189.79 214.846 190.05 214.94 190.32 214.98Z" fill="url(#paint27_linear_231_438)"/>
<path d="M145.2 102.8C145.013 107.24 142.173 111.157 136.68 114.55C131.2 117.788 125.075 119.781 118.74 120.39C116.75 120.65 114.746 120.787 112.74 120.8C106.833 120.8 102.046 119.677 98.3798 117.43C94.8464 115.37 92.8464 112.667 92.3798 109.32C91.9131 105.973 92.9898 102.64 95.6098 99.3201C95.1212 98.2196 94.8855 97.0236 94.9198 95.8201C94.9198 87.5734 100.233 80.6101 110.86 74.9301C113.426 70.1634 119.093 66.5667 127.86 64.14C131.309 63.1666 134.867 62.6357 138.45 62.5601C142.11 62.5601 145.016 63.2934 147.17 64.7601C148.007 65.2596 148.704 65.9624 149.197 66.8033C149.69 67.6441 149.963 68.5957 149.99 69.5701C149.98 70.2967 149.826 71.0142 149.536 71.6805C149.246 72.3467 148.826 72.9483 148.3 73.4501C147.003 74.7045 145.324 75.4894 143.53 75.6801H142.84C142.48 75.5901 142.29 75.4801 142.29 75.3401C142.29 74.8801 142.64 74.6501 143.29 74.6501C143.599 74.5223 143.862 74.3018 144.041 74.0189C144.22 73.7359 144.307 73.4045 144.29 73.0701C144.29 70.9701 140.956 69.9167 134.29 69.91C131.969 69.8728 129.65 70.0099 127.35 70.3201C123.427 71.0122 119.6 72.1669 115.95 73.7601C114.84 75.2015 114.127 76.9079 113.88 78.7101C113.613 81.3234 115.676 83.3834 120.07 84.89C124.161 86.2527 128.476 86.8129 132.78 86.5401C134.29 86.4901 135.05 86.9301 135.05 87.8501C135.05 88.7701 134.18 89.31 132.44 89.22C126.366 89.0975 120.305 89.8382 114.44 91.42C107.3 93.2534 102.193 96.2301 99.1198 100.35C101.263 102.219 104.05 103.181 106.89 103.03C108.266 103.031 109.637 102.856 110.97 102.51C112.591 102.042 114.116 101.287 115.47 100.28C117.47 98.91 118.47 97.6001 118.47 96.3701C118.472 96.0171 118.375 95.6707 118.19 95.3701C118.01 95.1401 118.03 94.98 118.26 94.89C118.49 94.8 118.49 94.94 118.67 95.17C118.886 95.5702 119.006 96.0154 119.02 96.47C119.02 97.85 118.02 99.3101 116.02 100.87C114.639 101.985 113.085 102.867 111.42 103.48C109.392 104.206 107.254 104.578 105.1 104.58C102.49 104.697 99.9191 103.921 97.8098 102.38C97.0832 103.832 96.6871 105.427 96.6498 107.05C96.6533 108.687 97.0625 110.297 97.8409 111.737C98.6192 113.176 99.7423 114.401 101.11 115.3C104.316 117.64 108.623 118.807 114.03 118.8C115.915 118.84 117.8 118.736 119.67 118.49C125.534 117.761 131.189 115.845 136.29 112.86C141.383 109.793 144.086 106.403 144.4 102.69C144.49 102.05 144.68 101.69 144.95 101.69C145.22 101.69 145.24 102.06 145.2 102.8ZM97.1998 97.64C100.846 94.0734 106.003 91.21 112.67 89.05C113.123 88.9234 116.42 88.2367 122.56 86.9901C119.27 87.1128 116.019 86.2529 113.22 84.5201C110.613 82.82 109.443 80.7567 109.71 78.33C109.76 78.06 109.8 77.7801 109.85 77.5101C109.891 77.2302 109.962 76.9554 110.06 76.69C101.133 81.8234 96.6698 87.7567 96.6698 94.4901C96.6488 95.5614 96.8181 96.6279 97.1698 97.64H97.1998ZM144.51 74.4901C146.023 73.8901 146.78 72.4467 146.78 70.16C146.798 69.3866 146.64 68.6191 146.318 67.9156C145.996 67.2122 145.517 66.5914 144.92 66.1001C143.46 64.8201 141.21 64.1801 138.19 64.1801C134.638 64.2874 131.122 64.9106 127.75 66.03C123.985 67.1251 120.549 69.1348 117.75 71.8801C120.86 70.67 124.082 69.7723 127.37 69.2001C128.096 69.1001 128.956 69.0201 129.95 68.9601C130.95 68.8901 132.07 68.8501 133.35 68.8501C141.23 68.8501 145.17 70.27 145.17 73.11C145.131 73.6367 144.895 74.1294 144.51 74.4901Z" fill="url(#paint28_linear_231_438)"/>
<path d="M169.8 69.4C171.9 69.4 172.96 70.52 172.96 72.91C172.935 74.0852 172.701 75.2467 172.27 76.34C170.117 82.94 164 90.5667 153.92 99.22C151.876 102.733 150.758 106.707 150.67 110.77C150.67 115.437 153.19 116.33 158.23 113.45C159.331 112.787 160.377 112.038 161.36 111.21C162.561 110.196 163.697 109.107 164.76 107.95C165.22 107.49 165.58 107.26 165.86 107.26C165.973 107.281 166.076 107.34 166.15 107.427C166.225 107.515 166.267 107.625 166.27 107.74C166.264 107.91 166.225 108.076 166.155 108.231C166.084 108.385 165.984 108.524 165.86 108.64C160.68 114.127 156.237 116.793 152.53 116.64C149.09 116.59 147.38 114.53 147.38 110.45C147.545 107.486 148.076 104.554 148.96 101.72C149.809 98.8816 150.828 96.0966 152.01 93.38C153.343 90.3267 154.983 87.0167 156.93 83.45C161.937 74.23 166.227 69.5467 169.8 69.4ZM170.07 76.07C170.501 75.0188 170.758 73.9041 170.83 72.77C170.83 71.62 170.44 71.05 169.66 71.05C168.38 71.05 166.983 72.4 165.47 75.1C161.397 82.1514 157.815 89.4755 154.75 97.02C156.21 95.56 157.67 94.02 159.11 92.39C160.55 90.76 161.96 89.03 163.34 87.2C166.083 83.8165 168.348 80.0713 170.07 76.07Z" fill="url(#paint29_linear_231_438)"/>
<path d="M184.67 108.64C179.49 114.127 175.047 116.793 171.34 116.64C167.12 116.54 165.217 113.607 165.63 107.84C165.863 105.093 167.217 101.91 169.69 98.2901C170.19 97.5101 171.18 97.1201 172.64 97.1201C173.74 97.1201 174.29 97.4201 174.29 98.0101C174.267 98.1986 174.22 98.3834 174.15 98.5601C173.37 99.9801 172.74 101.08 172.26 101.86C171.78 102.64 171.5 103.12 171.41 103.3C170.956 104.149 170.552 105.024 170.2 105.92C169.927 106.606 169.732 107.32 169.62 108.05C169.485 108.819 169.414 109.599 169.41 110.38C169.41 113.413 170.487 114.927 172.64 114.92C175.573 114.92 179.217 112.587 183.57 107.92C183.841 107.564 184.232 107.319 184.67 107.23C184.772 107.261 184.861 107.325 184.922 107.412C184.984 107.499 185.015 107.604 185.01 107.71C185.001 108.049 184.881 108.375 184.67 108.64ZM181.78 85.7601C181.78 88.0467 180.78 89.19 178.78 89.19C178.436 89.19 178.096 89.1169 177.782 88.9756C177.468 88.8342 177.188 88.6278 176.96 88.3701C176.717 88.1387 176.521 87.8614 176.386 87.5542C176.25 87.2469 176.177 86.9158 176.17 86.58C176.175 86.1377 176.282 85.7025 176.483 85.3087C176.684 84.9148 176.974 84.573 177.33 84.3101C177.908 83.8673 178.604 83.6062 179.33 83.5601C180.93 83.5601 181.75 84.2901 181.75 85.7601H181.78Z" fill="url(#paint30_linear_231_438)"/>
<path d="M183.67 116.13C183.601 116.337 183.465 116.516 183.285 116.638C183.104 116.761 182.888 116.821 182.67 116.81C182.424 116.802 182.182 116.74 181.962 116.627C181.743 116.515 181.551 116.355 181.4 116.16C181.01 115.72 180.86 115.35 180.95 115.03C181.28 114.34 181.71 113.37 182.26 112.11C182.81 110.85 183.47 109.3 184.26 107.47C186.19 103.03 187.15 100.32 187.15 99.36C187.781 98.7563 188.53 98.2898 189.35 97.99C190.81 97.3 191.55 97.48 191.55 98.54C189.828 103.308 187.817 107.966 185.53 112.49C187.217 110.657 189.037 108.7 190.99 106.62C192.943 104.54 195.017 102.307 197.21 99.92C198.21 98.77 199.02 98.2 199.62 98.2C199.93 98.2 200.1 98.43 200.1 98.89C200.082 99.2647 200.011 99.635 199.89 99.99C198.33 105.21 197.55 108.877 197.55 110.99C197.55 113.47 198.4 114.7 200.1 114.7C201.8 114.7 203.6 113.88 205.66 112.23C206.03 111.91 206.59 111.38 207.34 110.65C208.09 109.92 209.03 108.98 210.13 107.83C210.333 107.572 210.626 107.401 210.95 107.35C211.13 107.35 211.27 107.49 211.36 107.76C211.41 107.892 211.417 108.036 211.381 108.172C211.345 108.308 211.268 108.43 211.16 108.52C206.493 113.647 202.37 116.21 198.79 116.21C195.583 116.21 193.98 113.713 193.98 108.72C193.987 107.504 194.057 106.289 194.19 105.08C193.59 105.63 192.87 106.32 192.02 107.14C191.17 107.96 190.16 108.93 188.96 110.03C188.367 110.577 187.807 111.127 187.28 111.68C186.755 112.225 186.261 112.799 185.8 113.4C185.44 113.86 185.08 114.31 184.74 114.77C184.4 115.23 184.04 115.67 183.67 116.13Z" fill="url(#paint31_linear_231_438)"/>
<path d="M239.88 108.77C234.547 114.45 229.99 117.087 226.21 116.68C225.512 116.557 224.846 116.292 224.255 115.902C223.663 115.511 223.158 115.004 222.77 114.41C221.65 112.655 220.99 110.647 220.85 108.57C220.025 109.703 219.14 110.791 218.2 111.83C217.32 112.807 216.367 113.717 215.35 114.55C213.52 116.01 212 116.74 210.81 116.74C209.12 116.74 208.27 115.67 208.27 113.51C208.339 111.462 209.011 109.479 210.2 107.81C213.173 103.277 216.507 100.14 220.2 98.4001C221.591 97.719 223.112 97.3439 224.66 97.3C225.069 97.307 225.475 97.3641 225.87 97.47C226.295 97.5881 226.707 97.749 227.1 97.9501C227.472 98.1317 227.81 98.3751 228.1 98.67C228.228 98.8024 228.327 98.9592 228.392 99.1311C228.458 99.303 228.488 99.4863 228.48 99.67C228.475 99.7484 228.45 99.8242 228.408 99.8906C228.366 99.957 228.309 100.012 228.24 100.05C228.073 100.173 227.887 100.267 227.69 100.33C227.492 100.398 227.298 100.478 227.11 100.57C226.93 100.66 226.83 100.73 226.83 100.77C225.252 103.441 224.377 106.469 224.29 109.57C224.29 113.05 225.643 114.79 228.35 114.79C231.18 114.79 234.74 112.52 239 107.99C239.106 107.815 239.252 107.668 239.426 107.56C239.6 107.453 239.796 107.387 240 107.37C240.23 107.37 240.34 107.53 240.34 107.85C240.329 108.026 240.282 108.199 240.203 108.357C240.124 108.515 240.014 108.655 239.88 108.77ZM222.77 99.7001C218.97 99.6067 215.693 102.273 212.94 107.7C212.247 108.896 211.849 110.24 211.78 111.62C211.78 112.86 212.21 113.48 213.08 113.48C214.306 113.292 215.439 112.714 216.31 111.83C218.363 110.25 219.972 108.166 220.98 105.78C221.241 103.669 221.846 101.616 222.77 99.7001Z" fill="url(#paint32_linear_231_438)"/>
<path d="M89.1698 147.69C88.6698 149.54 87.2699 151.11 84.9599 152.42C82.6022 153.861 79.8825 154.6 77.1198 154.55C75.8932 158.363 75.2765 160.92 75.2699 162.22C75.2699 162.99 75.4598 163.38 75.8498 163.38C77.6898 163.38 81.2265 161.227 86.4599 156.92C88.5665 155.187 90.4232 153.59 92.0298 152.13C93.6198 150.67 94.9598 149.34 96.0298 148.13C99.7833 144.125 103.056 139.695 105.78 134.93C108.78 129.497 110.28 124.613 110.28 120.28C110.346 116.646 109.072 113.114 106.7 110.36C106.318 109.981 106.057 109.497 105.95 108.97C105.947 108.939 105.951 108.908 105.961 108.878C105.971 108.849 105.988 108.823 106.01 108.8C106.032 108.778 106.059 108.762 106.088 108.751C106.118 108.741 106.149 108.737 106.18 108.74C106.801 108.881 107.365 109.205 107.8 109.67C109.379 110.986 110.638 112.644 111.482 114.519C112.326 116.393 112.732 118.435 112.67 120.49C112.67 124.95 110.98 129.987 107.6 135.6C106.201 137.983 104.637 140.265 102.92 142.43C101.16 144.683 99.1798 146.963 96.9798 149.27C86.1798 160.53 78.9332 166.163 75.2399 166.17C74.8038 166.165 74.3728 166.077 73.9698 165.91C73.5724 165.748 73.2041 165.521 72.8799 165.24C72.5818 164.987 72.3283 164.687 72.1299 164.35C71.9411 164.053 71.8599 163.7 71.8998 163.35C72.0245 161.899 72.2349 160.456 72.5298 159.03C72.8398 157.49 73.2399 155.83 73.7399 154.03C73.2399 153.87 72.7399 153.71 72.2999 153.54C71.8066 153.346 71.3257 153.123 70.8598 152.87C68.8198 158.603 67.7232 162.527 67.5698 164.64C67.5698 164.87 67.4798 164.93 67.2798 164.81C67.0798 164.69 66.9199 164.58 66.9899 164.35C67.6191 160.303 68.6543 156.33 70.0798 152.49C65.5896 149.961 61.9391 146.172 59.5798 141.59C57.1464 137.046 55.8624 131.975 55.8398 126.82C49.7998 132.36 46.7798 137.397 46.7798 141.93C46.7571 143.231 47.1101 144.51 47.7965 145.615C48.483 146.721 49.4737 147.604 50.6498 148.16C51.2598 148.51 51.5698 148.82 51.5698 149.09C51.5698 149.36 51.3999 149.43 51.0499 149.43C50.613 149.386 50.1956 149.227 49.8398 148.97C46.5065 146.303 44.8398 143.247 44.8398 139.8C44.9803 136.587 46.1317 133.5 48.1299 130.98C50.3233 128.01 52.9687 125.401 55.9698 123.25C56.0498 122.52 56.1498 121.8 56.2898 121.09C56.4166 120.379 56.5801 119.674 56.7798 118.98C57.4408 116.27 58.7442 113.76 60.5798 111.66C61.4377 110.582 62.5238 109.707 63.7601 109.098C64.9964 108.49 66.3521 108.162 67.7298 108.14C69.6521 108.118 71.5096 108.834 72.9198 110.14C74.7012 111.794 75.9479 113.943 76.4998 116.31C81.9998 117.31 84.7498 121.193 84.7498 127.96C84.6404 132.05 83.8216 136.09 82.3298 139.9C81.7498 141.44 81.0465 143.36 80.2198 145.66C79.3932 147.96 78.4232 150.69 77.3098 153.85C79.8729 153.904 82.3961 153.209 84.5698 151.85C86.7698 150.62 88.0498 149.18 88.4398 147.53C88.4632 147.447 88.5182 147.376 88.593 147.334C88.6677 147.291 88.7564 147.278 88.8399 147.3C89.1499 147.37 89.2498 147.49 89.1698 147.69ZM70.4298 151.56L70.8898 150.17C74.3498 140.21 76.0798 131.503 76.0798 124.05C76.1287 121.882 75.9341 119.715 75.4998 117.59C75.2665 117.55 75.0265 117.52 74.7798 117.5C74.5332 117.48 74.2732 117.48 73.9998 117.5C69.2665 117.5 63.6932 120.193 57.2798 125.58C57.2736 130.744 58.4793 135.837 60.7999 140.45C62.8692 145.006 66.214 148.865 70.4298 151.56ZM75.0998 116.03C74.5421 113.93 73.3431 112.056 71.6698 110.67C70.9854 110.116 70.1953 109.707 69.3478 109.468C68.5002 109.229 67.6129 109.165 66.7399 109.28C64.7671 109.558 62.9621 110.542 61.6599 112.05C59.6419 114.523 58.2677 117.457 57.6599 120.59C57.5599 121.12 57.4798 121.68 57.3998 122.26L57.9198 121.91C64.3332 117.63 70.0598 115.67 75.0998 116.03ZM76.9398 118.03C77.1085 118.895 77.2154 119.77 77.2598 120.65C77.3198 121.63 77.3498 122.68 77.3498 123.8C77.3498 131.06 75.5032 139.883 71.8098 150.27L71.1798 152C72.071 152.509 73.017 152.915 73.9998 153.21C74.5398 151.523 75.2065 149.467 75.9998 147.04C76.7932 144.613 77.6965 141.767 78.7098 138.5C80.0083 134.621 80.7524 130.577 80.9198 126.49C80.9198 122.017 79.5932 119.203 76.9398 118.05V118.03Z" fill="url(#paint33_linear_231_438)"/>
<path d="M118.35 141.92L118.12 142.15C119.488 142.6 120.692 143.446 121.58 144.58C122.476 145.644 122.968 146.989 122.97 148.38C122.942 150.85 122.251 153.268 120.97 155.38L120.85 155.61C124.13 155.615 127.28 154.329 129.62 152.03C129.691 151.947 129.778 151.88 129.876 151.832C129.974 151.784 130.081 151.756 130.19 151.75C130.42 151.75 130.54 151.88 130.54 152.15C130.538 152.353 130.484 152.551 130.382 152.727C130.28 152.902 130.135 153.048 129.96 153.15C127.218 155.616 123.647 156.955 119.96 156.9C118.94 158.191 117.685 159.277 116.26 160.1C115.06 160.861 113.68 161.289 112.26 161.34C109.64 161.34 108.37 159.803 108.45 156.73C108.553 154.131 109.118 151.571 110.12 149.17C110.12 148.86 110.05 148.54 110.03 148.17C110.01 147.8 110.03 147.48 110.03 147.17C110.03 143.98 111.58 142.17 114.7 141.87C114.957 141.488 115.289 141.163 115.676 140.914C116.062 140.664 116.496 140.496 116.95 140.42C118.02 140.42 118.56 140.73 118.56 141.35C118.564 141.454 118.548 141.558 118.512 141.656C118.476 141.754 118.421 141.844 118.35 141.92ZM111.84 153.29C111.569 154.347 111.411 155.43 111.37 156.52C111.37 158.6 112.12 159.64 113.62 159.64C115.393 159.64 116.933 158.697 118.24 156.81C116.988 156.695 115.774 156.324 114.673 155.718C113.571 155.112 112.607 154.286 111.84 153.29ZM117.26 143.02C115.394 145.109 113.908 147.509 112.87 150.11C113.6 153.27 115.66 155.11 119.05 155.53C120.285 153.304 120.97 150.815 121.05 148.27C121.094 146.986 120.745 145.72 120.05 144.64C119.75 144.165 119.34 143.769 118.854 143.487C118.368 143.205 117.821 143.045 117.26 143.02Z" fill="url(#paint34_linear_231_438)"/>
<path d="M156.94 153.23C152.713 156.877 149.097 159.24 146.09 160.32C144.817 160.839 143.464 161.133 142.09 161.19C139.357 161.19 137.973 159.727 137.94 156.8C137.86 154.65 138.77 151.92 140.65 148.61C140.159 148.663 139.662 148.608 139.194 148.449C138.725 148.29 138.298 148.031 137.94 147.69C137.567 147.371 137.271 146.973 137.072 146.525C136.873 146.077 136.777 145.59 136.79 145.1C134.945 148.373 132.475 151.251 129.52 153.57C129.402 153.697 129.26 153.799 129.102 153.869C128.944 153.94 128.773 153.977 128.6 153.98C128.37 153.98 128.25 153.88 128.25 153.69C128.25 153.5 128.43 153.25 128.77 152.94C131.717 150.302 134.142 147.134 135.92 143.6C135.798 143.303 135.72 142.99 135.69 142.67C135.575 142.141 135.518 141.601 135.52 141.06C135.49 140.419 135.586 139.777 135.804 139.173C136.022 138.569 136.357 138.014 136.79 137.54C137.09 137.17 137.468 136.87 137.896 136.661C138.325 136.452 138.793 136.339 139.27 136.33C139.495 136.296 139.724 136.314 139.941 136.381C140.158 136.448 140.357 136.563 140.523 136.718C140.69 136.873 140.819 137.063 140.901 137.274C140.984 137.486 141.018 137.714 141 137.94C141.107 139.44 140.087 141.48 137.94 144.06C137.94 145.25 138.52 145.85 139.79 145.85C140.388 145.824 140.981 145.716 141.55 145.53C142.042 145.362 142.552 145.254 143.07 145.21C143.305 145.177 143.545 145.198 143.77 145.274C143.995 145.349 144.199 145.475 144.367 145.643C144.535 145.811 144.661 146.015 144.737 146.24C144.812 146.466 144.833 146.705 144.8 146.94C144.777 147.452 144.618 147.949 144.34 148.38C144.15 148.69 143.91 149.12 143.62 149.68C143.33 150.24 143.02 150.9 142.62 151.68C142.022 152.902 141.54 154.178 141.18 155.49C141.071 155.962 141.014 156.445 141.01 156.93C141.01 158.51 141.76 159.29 143.25 159.29C145.14 159.29 147.48 158.47 150.25 156.81C151.413 156.164 152.532 155.443 153.6 154.65C154.536 153.954 155.422 153.192 156.25 152.37C156.466 152.1 156.771 151.915 157.11 151.85C157.158 151.843 157.206 151.848 157.251 151.863C157.297 151.878 157.338 151.904 157.372 151.938C157.406 151.972 157.432 152.013 157.447 152.059C157.462 152.104 157.467 152.153 157.46 152.2C157.41 152.593 157.226 152.956 156.94 153.23Z" fill="url(#paint35_linear_231_438)"/>
<path d="M165.59 141.92L165.36 142.15C166.725 142.606 167.928 143.45 168.82 144.58C169.706 145.649 170.193 146.992 170.2 148.38C170.177 150.851 169.486 153.27 168.2 155.38L168.08 155.61C171.36 155.615 174.51 154.329 176.85 152.03C176.923 151.947 177.012 151.879 177.111 151.831C177.211 151.783 177.319 151.755 177.43 151.75C177.66 151.75 177.77 151.88 177.77 152.15C177.768 152.352 177.715 152.549 177.615 152.724C177.515 152.899 177.372 153.046 177.2 153.15C174.456 155.612 170.886 156.951 167.2 156.9C166.181 158.188 164.929 159.274 163.51 160.1C162.31 160.861 160.93 161.289 159.51 161.34C156.89 161.34 155.62 159.803 155.7 156.73C155.803 154.131 156.368 151.571 157.37 149.17C157.37 148.86 157.31 148.54 157.29 148.17C157.27 147.8 157.29 147.48 157.29 147.17C157.29 143.983 158.847 142.217 161.96 141.87C162.219 141.49 162.551 141.166 162.938 140.917C163.324 140.667 163.757 140.499 164.21 140.42C165.29 140.42 165.82 140.73 165.82 141.35C165.821 141.563 165.738 141.768 165.59 141.92ZM159.07 153.29C158.801 154.347 158.647 155.43 158.61 156.52C158.61 158.6 159.36 159.64 160.86 159.64C162.63 159.64 164.16 158.7 165.47 156.81C164.219 156.694 163.004 156.322 161.903 155.716C160.802 155.111 159.838 154.285 159.07 153.29ZM164.49 143.02C162.624 145.108 161.142 147.508 160.11 150.11C160.84 153.27 162.89 155.11 166.28 155.53C167.512 153.303 168.198 150.814 168.28 148.27C168.32 146.987 167.971 145.722 167.28 144.64C166.978 144.167 166.567 143.772 166.082 143.491C165.597 143.209 165.051 143.047 164.49 143.02Z" fill="url(#paint36_linear_231_438)"/>
<path d="M176.67 159.23C176.615 159.4 176.507 159.548 176.361 159.651C176.214 159.754 176.039 159.806 175.86 159.8C175.654 159.792 175.452 159.739 175.268 159.644C175.085 159.549 174.925 159.414 174.8 159.25C174.47 158.89 174.34 158.57 174.42 158.3C174.69 157.73 175.05 156.91 175.52 155.85C175.99 154.79 176.52 153.5 177.19 151.96C178.803 148.233 179.61 145.963 179.61 145.15C180.14 144.643 180.77 144.251 181.46 144C182.69 143.42 183.3 143.58 183.3 144.46C181.849 148.463 180.156 152.373 178.23 156.17C179.65 154.63 181.177 152.987 182.81 151.24L188.03 145.61C188.88 144.61 189.55 144.17 190.03 144.17C190.3 144.17 190.43 144.37 190.43 144.75C190.414 145.063 190.357 145.372 190.26 145.67C188.95 150.06 188.26 153.13 188.26 154.9C188.26 156.98 188.97 158.01 190.39 158.01C192.134 157.861 193.778 157.133 195.06 155.94C195.37 155.67 195.84 155.23 196.48 154.61C197.12 153.99 197.89 153.21 198.81 152.25C198.981 152.033 199.227 151.887 199.5 151.84C199.66 151.84 199.77 151.96 199.85 152.19C199.889 152.3 199.894 152.419 199.864 152.532C199.834 152.644 199.769 152.745 199.68 152.82C195.76 157.127 192.3 159.28 189.3 159.28C186.633 159.28 185.3 157.187 185.3 153C185.3 152.07 185.36 151.06 185.47 149.94C184.97 150.4 184.37 150.94 183.66 151.67C182.95 152.4 182.09 153.17 181.09 154.09C180.59 154.55 180.09 155.02 179.68 155.48C179.237 155.934 178.823 156.415 178.44 156.92C178.13 157.3 177.83 157.69 177.54 158.07C177.25 158.45 176.97 158.84 176.67 159.23Z" fill="url(#paint37_linear_231_438)"/>
<path d="M207.97 141.92L207.74 142.15C209.108 142.6 210.312 143.446 211.2 144.58C212.096 145.644 212.588 146.989 212.59 148.38C212.563 150.85 211.872 153.268 210.59 155.38L210.47 155.61C213.75 155.615 216.9 154.329 219.24 152.03C219.311 151.947 219.399 151.88 219.497 151.832C219.595 151.784 219.701 151.756 219.81 151.75C220.05 151.75 220.16 151.88 220.16 152.15C220.158 152.353 220.104 152.551 220.002 152.727C219.901 152.902 219.755 153.048 219.58 153.15C216.839 155.616 213.267 156.955 209.58 156.9C208.561 158.188 207.31 159.274 205.89 160.1C204.691 160.861 203.31 161.289 201.89 161.34C199.27 161.34 198 159.803 198.08 156.73C198.183 154.131 198.749 151.571 199.75 149.17C199.75 148.86 199.69 148.54 199.67 148.17C199.65 147.8 199.67 147.48 199.67 147.17C199.67 143.98 201.22 142.17 204.34 141.87C204.597 141.488 204.929 141.163 205.316 140.914C205.703 140.664 206.136 140.496 206.59 140.42C207.66 140.42 208.2 140.73 208.2 141.35C208.202 141.456 208.182 141.56 208.143 141.658C208.103 141.756 208.045 141.845 207.97 141.92ZM201.46 153.29C201.192 154.347 201.037 155.43 201 156.52C201 158.6 201.75 159.64 203.25 159.64C205.01 159.64 206.547 158.697 207.86 156.81C206.609 156.695 205.394 156.324 204.293 155.718C203.192 155.112 202.227 154.286 201.46 153.29ZM206.88 143.02C205.015 145.108 203.532 147.508 202.5 150.11C203.23 153.27 205.28 155.11 208.67 155.53C209.905 153.304 210.591 150.815 210.67 148.27C210.71 146.987 210.362 145.722 209.67 144.64C209.369 144.167 208.958 143.772 208.472 143.491C207.987 143.209 207.441 143.047 206.88 143.02Z" fill="url(#paint38_linear_231_438)"/>
<path d="M244.67 152.94C244.015 153.766 243.182 154.433 242.233 154.892C241.284 155.351 240.244 155.589 239.19 155.59C237.766 155.604 236.378 155.147 235.24 154.29C234.102 153.478 233.263 152.315 232.85 150.98C231.74 153.555 230.132 155.886 228.12 157.84C226.2 159.57 224.56 160.3 223.22 160.03C221.45 159.69 220.56 158.28 220.56 155.82C220.589 154.176 220.985 152.56 221.72 151.09L221.2 151.67C220.81 152.06 220.08 152.73 219.01 153.67C218.849 153.863 218.62 153.988 218.37 154.02C218.315 154.027 218.259 154.021 218.207 154.002C218.155 153.984 218.107 153.954 218.069 153.914C218.03 153.874 218.001 153.826 217.984 153.774C217.967 153.721 217.962 153.665 217.97 153.61C218.089 153.25 218.307 152.931 218.6 152.69C220.896 150.594 223.001 148.298 224.89 145.83C225.058 145.556 225.295 145.331 225.578 145.178C225.861 145.025 226.179 144.95 226.5 144.96C227.27 144.96 227.66 145.29 227.66 145.96C227.219 147.073 226.659 148.136 225.99 149.13C225.33 150.21 224.83 151.05 224.49 151.64C224.15 152.23 223.93 152.64 223.85 152.77C223.237 153.967 222.895 155.285 222.85 156.63C222.85 157.63 223.1 158.19 223.6 158.3C223.79 158.348 223.985 158.368 224.18 158.36C225.447 158.36 226.85 157.533 228.39 155.88C229.18 155.01 229.893 154.073 230.52 153.08C231.196 152.021 231.795 150.915 232.31 149.77C232.037 147.526 232.383 145.251 233.31 143.19C234 141.85 234.83 141.19 235.79 141.19C236.75 141.19 237.29 141.85 237.29 143.19C237.301 143.37 237.301 143.55 237.29 143.73C237.29 143.91 237.24 144.09 237.2 144.28C236.685 146.277 235.507 148.039 233.86 149.28C233.942 150.68 234.512 152.006 235.47 153.03C235.946 153.573 236.531 154.008 237.188 154.306C237.845 154.605 238.559 154.759 239.28 154.76C240.216 154.712 241.132 154.466 241.966 154.038C242.8 153.611 243.534 153.012 244.12 152.28C244.51 151.82 244.78 151.72 244.93 151.99C245.08 152.26 245.02 152.56 244.67 152.94Z" fill="url(#paint39_linear_231_438)"/>
<path d="M268.99 153.05C264.49 157.823 260.663 160.037 257.51 159.69C256.924 159.586 256.367 159.363 255.871 159.035C255.376 158.706 254.953 158.279 254.63 157.78C253.691 156.307 253.138 154.622 253.02 152.88C252.327 153.833 251.583 154.748 250.79 155.62C250.056 156.443 249.257 157.205 248.4 157.9C247.358 158.904 246.024 159.548 244.59 159.74C243.17 159.74 242.46 158.84 242.46 157.03C242.52 155.312 243.083 153.65 244.08 152.25C246.58 148.437 249.387 145.803 252.5 144.35C253.668 143.772 254.947 143.455 256.25 143.42C256.588 143.425 256.925 143.476 257.25 143.57C257.598 143.664 257.933 143.799 258.25 143.97C258.554 144.124 258.828 144.33 259.06 144.58C259.265 144.796 259.38 145.082 259.38 145.38C259.375 145.447 259.354 145.512 259.317 145.568C259.28 145.624 259.23 145.669 259.17 145.7C259.031 145.802 258.875 145.88 258.71 145.93L258.22 146.13C258.07 146.21 257.99 146.27 257.99 146.31C256.663 148.549 255.93 151.089 255.86 153.69C255.86 156.61 256.993 158.07 259.26 158.07C261.647 158.07 264.627 156.167 268.2 152.36C268.287 152.218 268.405 152.098 268.546 152.008C268.686 151.918 268.845 151.86 269.01 151.84C269.2 151.84 269.3 151.98 269.3 152.25C269.305 152.397 269.28 152.544 269.227 152.682C269.174 152.819 269.093 152.945 268.99 153.05ZM254.67 145.49C251.477 145.423 248.727 147.653 246.42 152.18C245.827 153.18 245.484 154.309 245.42 155.47C245.42 156.47 245.79 157.03 246.52 157.03C247.55 156.871 248.5 156.384 249.23 155.64C250.954 154.318 252.304 152.571 253.15 150.57C253.378 148.806 253.892 147.09 254.67 145.49Z" fill="url(#paint40_linear_231_438)"/>
</g>
<defs>
<linearGradient id="paint0_linear_231_438" x1="21.0596" y1="18.41" x2="131.921" y2="19.9808" gradientUnits="userSpaceOnUse">
<stop stop-color="#FFEBBA"/>
<stop offset="1" stop-color="#F0C966"/>
</linearGradient>
<linearGradient id="paint1_linear_231_438" x1="0.0078125" y1="12.1599" x2="197.42" y2="16.7521" gradientUnits="userSpaceOnUse">
<stop stop-color="#FFEBBA"/>
<stop offset="1" stop-color="#F0C966"/>
</linearGradient>
<linearGradient id="paint2_linear_231_438" x1="147.05" y1="31.15" x2="169.754" y2="31.8176" gradientUnits="userSpaceOnUse">
<stop stop-color="#FFEBBA"/>
<stop offset="1" stop-color="#F0C966"/>
</linearGradient>
<linearGradient id="paint3_linear_231_438" x1="89.0601" y1="29.84" x2="118.377" y2="30.7019" gradientUnits="userSpaceOnUse">
<stop stop-color="#FFEBBA"/>
<stop offset="1" stop-color="#F0C966"/>
</linearGradient>
<linearGradient id="paint4_linear_231_438" x1="170.49" y1="14.0699" x2="186.176" y2="14.5311" gradientUnits="userSpaceOnUse">
<stop stop-color="#FFEBBA"/>
<stop offset="1" stop-color="#F0C966"/>
</linearGradient>
<linearGradient id="paint5_linear_231_438" x1="65.5898" y1="58.92" x2="85.845" y2="59.5155" gradientUnits="userSpaceOnUse">
<stop stop-color="#FFEBBA"/>
<stop offset="1" stop-color="#F0C966"/>
</linearGradient>
<linearGradient id="paint6_linear_231_438" x1="139.33" y1="0" x2="155.016" y2="0.460826" gradientUnits="userSpaceOnUse">
<stop stop-color="#FFEBBA"/>
<stop offset="1" stop-color="#F0C966"/>
</linearGradient>
<linearGradient id="paint7_linear_231_438" x1="49.29" y1="220.58" x2="67.1836" y2="221.106" gradientUnits="userSpaceOnUse">
<stop stop-color="#FFEBBA"/>
<stop offset="1" stop-color="#F0C966"/>
</linearGradient>
<linearGradient id="paint8_linear_231_438" x1="96.8701" y1="189.85" x2="119.015" y2="190.501" gradientUnits="userSpaceOnUse">
<stop stop-color="#FFEBBA"/>
<stop offset="1" stop-color="#F0C966"/>
</linearGradient>
<linearGradient id="paint9_linear_231_438" x1="148.34" y1="222.26" x2="162.246" y2="222.669" gradientUnits="userSpaceOnUse">
<stop stop-color="#FFEBBA"/>
<stop offset="1" stop-color="#F0C966"/>
</linearGradient>
<linearGradient id="paint10_linear_231_438" x1="184.51" y1="34.13" x2="190.552" y2="34.2991" gradientUnits="userSpaceOnUse">
<stop stop-color="#FFEBBA"/>
<stop offset="1" stop-color="#F0C966"/>
</linearGradient>
<linearGradient id="paint11_linear_231_438" x1="159.237" y1="15.304" x2="165.246" y2="14.5046" gradientUnits="userSpaceOnUse">
<stop stop-color="#FFEBBA"/>
<stop offset="1" stop-color="#F0C966"/>
</linearGradient>
<linearGradient id="paint12_linear_231_438" x1="70.52" y1="39.84" x2="79.1984" y2="40.0828" gradientUnits="userSpaceOnUse">
<stop stop-color="#FFEBBA"/>
<stop offset="1" stop-color="#F0C966"/>
</linearGradient>
<linearGradient id="paint13_linear_231_438" x1="132.08" y1="27.74" x2="138.122" y2="27.909" gradientUnits="userSpaceOnUse">
<stop stop-color="#FFEBBA"/>
<stop offset="1" stop-color="#F0C966"/>
</linearGradient>
<linearGradient id="paint14_linear_231_438" x1="120.808" y1="184.56" x2="152.643" y2="185.241" gradientUnits="userSpaceOnUse">
<stop stop-color="#FFEBBA"/>
<stop offset="1" stop-color="#F0C966"/>
</linearGradient>
<linearGradient id="paint15_linear_231_438" x1="170.48" y1="31.95" x2="186.552" y2="32.1372" gradientUnits="userSpaceOnUse">
<stop stop-color="#FFEBBA"/>
<stop offset="1" stop-color="#F0C966"/>
</linearGradient>
<linearGradient id="paint16_linear_231_438" x1="153.25" y1="218.998" x2="197.378" y2="221.835" gradientUnits="userSpaceOnUse">
<stop stop-color="#FFEBBA"/>
<stop offset="1" stop-color="#F0C966"/>
</linearGradient>
<linearGradient id="paint17_linear_231_438" x1="183.37" y1="41.16" x2="213.725" y2="42.5642" gradientUnits="userSpaceOnUse">
<stop stop-color="#FFEBBA"/>
<stop offset="1" stop-color="#F0C966"/>
</linearGradient>
<linearGradient id="paint18_linear_231_438" x1="165" y1="172.418" x2="209.564" y2="173.63" gradientUnits="userSpaceOnUse">
<stop stop-color="#FFEBBA"/>
<stop offset="1" stop-color="#F0C966"/>
</linearGradient>
<linearGradient id="paint19_linear_231_438" x1="153.577" y1="202.61" x2="160.568" y2="202.806" gradientUnits="userSpaceOnUse">
<stop stop-color="#FFEBBA"/>
<stop offset="1" stop-color="#F0C966"/>
</linearGradient>
<linearGradient id="paint20_linear_231_438" x1="73.8872" y1="227.37" x2="80.8695" y2="227.566" gradientUnits="userSpaceOnUse">
<stop stop-color="#FFEBBA"/>
<stop offset="1" stop-color="#F0C966"/>
</linearGradient>
<linearGradient id="paint21_linear_231_438" x1="96.9771" y1="182.85" x2="103.959" y2="183.046" gradientUnits="userSpaceOnUse">
<stop stop-color="#FFEBBA"/>
<stop offset="1" stop-color="#F0C966"/>
</linearGradient>
<linearGradient id="paint22_linear_231_438" x1="163.422" y1="199.454" x2="168.326" y2="199.591" gradientUnits="userSpaceOnUse">
<stop stop-color="#FFEBBA"/>
<stop offset="1" stop-color="#F0C966"/>
</linearGradient>
<linearGradient id="paint23_linear_231_438" x1="83.6938" y1="201.465" x2="88.5933" y2="201.602" gradientUnits="userSpaceOnUse">
<stop stop-color="#FFEBBA"/>
<stop offset="1" stop-color="#F0C966"/>
</linearGradient>
<linearGradient id="paint24_linear_231_438" x1="156.037" y1="196.191" x2="160.936" y2="196.328" gradientUnits="userSpaceOnUse">
<stop stop-color="#FFEBBA"/>
<stop offset="1" stop-color="#F0C966"/>
</linearGradient>
<linearGradient id="paint25_linear_231_438" x1="178.352" y1="215.909" x2="182.896" y2="216.036" gradientUnits="userSpaceOnUse">
<stop stop-color="#FFEBBA"/>
<stop offset="1" stop-color="#F0C966"/>
</linearGradient>
<linearGradient id="paint26_linear_231_438" x1="185.627" y1="217.587" x2="190.175" y2="217.715" gradientUnits="userSpaceOnUse">
<stop stop-color="#FFEBBA"/>
<stop offset="1" stop-color="#F0C966"/>
</linearGradient>
<linearGradient id="paint27_linear_231_438" x1="188.555" y1="210.863" x2="193.103" y2="210.99" gradientUnits="userSpaceOnUse">
<stop stop-color="#FFEBBA"/>
<stop offset="1" stop-color="#F0C966"/>
</linearGradient>
<linearGradient id="paint28_linear_231_438" x1="92.2739" y1="62.5601" x2="155.677" y2="64.3181" gradientUnits="userSpaceOnUse">
<stop stop-color="#FFEBBA"/>
<stop offset="1" stop-color="#F0C966"/>
</linearGradient>
<linearGradient id="paint29_linear_231_438" x1="147.38" y1="69.4" x2="175.496" y2="69.8259" gradientUnits="userSpaceOnUse">
<stop stop-color="#FFEBBA"/>
<stop offset="1" stop-color="#F0C966"/>
</linearGradient>
<linearGradient id="paint30_linear_231_438" x1="165.575" y1="83.5601" x2="186.936" y2="83.9112" gradientUnits="userSpaceOnUse">
<stop stop-color="#FFEBBA"/>
<stop offset="1" stop-color="#F0C966"/>
</linearGradient>
<linearGradient id="paint31_linear_231_438" x1="180.925" y1="97.5802" x2="214.367" y2="99.0631" gradientUnits="userSpaceOnUse">
<stop stop-color="#FFEBBA"/>
<stop offset="1" stop-color="#F0C966"/>
</linearGradient>
<linearGradient id="paint32_linear_231_438" x1="208.27" y1="97.3" x2="243.452" y2="98.924" gradientUnits="userSpaceOnUse">
<stop stop-color="#FFEBBA"/>
<stop offset="1" stop-color="#F0C966"/>
</linearGradient>
<linearGradient id="paint33_linear_231_438" x1="44.8398" y1="108.14" x2="119.338" y2="110.576" gradientUnits="userSpaceOnUse">
<stop stop-color="#FFEBBA"/>
<stop offset="1" stop-color="#F0C966"/>
</linearGradient>
<linearGradient id="paint34_linear_231_438" x1="108.446" y1="140.42" x2="132.714" y2="141.137" gradientUnits="userSpaceOnUse">
<stop stop-color="#FFEBBA"/>
<stop offset="1" stop-color="#F0C966"/>
</linearGradient>
<linearGradient id="paint35_linear_231_438" x1="128.25" y1="136.313" x2="160.332" y2="137.367" gradientUnits="userSpaceOnUse">
<stop stop-color="#FFEBBA"/>
<stop offset="1" stop-color="#F0C966"/>
</linearGradient>
<linearGradient id="paint36_linear_231_438" x1="155.696" y1="140.42" x2="179.943" y2="141.136" gradientUnits="userSpaceOnUse">
<stop stop-color="#FFEBBA"/>
<stop offset="1" stop-color="#F0C966"/>
</linearGradient>
<linearGradient id="paint37_linear_231_438" x1="174.397" y1="143.658" x2="202.362" y2="144.893" gradientUnits="userSpaceOnUse">
<stop stop-color="#FFEBBA"/>
<stop offset="1" stop-color="#F0C966"/>
</linearGradient>
<linearGradient id="paint38_linear_231_438" x1="198.077" y1="140.42" x2="222.334" y2="141.137" gradientUnits="userSpaceOnUse">
<stop stop-color="#FFEBBA"/>
<stop offset="1" stop-color="#F0C966"/>
</linearGradient>
<linearGradient id="paint39_linear_231_438" x1="217.966" y1="141.19" x2="247.647" y2="142.378" gradientUnits="userSpaceOnUse">
<stop stop-color="#FFEBBA"/>
<stop offset="1" stop-color="#F0C966"/>
</linearGradient>
<linearGradient id="paint40_linear_231_438" x1="242.46" y1="143.42" x2="271.906" y2="144.775" gradientUnits="userSpaceOnUse">
<stop stop-color="#FFEBBA"/>
<stop offset="1" stop-color="#F0C966"/>
</linearGradient>
<clipPath id="clip0_231_438">
<rect width="269.34" height="236.54" fill="white"/>
</clipPath>
</defs>
</svg>
