<svg width="7" height="12" viewBox="0 0 7 12" fill="none" xmlns="http://www.w3.org/2000/svg">
<path d="M0.292444 0.709614C0.19974 0.802128 0.126193 0.912017 0.0760112 1.03299C0.0258297 1.15396 0 1.28365 0 1.41461C0 1.54558 0.0258297 1.67527 0.0760112 1.79624C0.126193 1.91721 0.19974 2.0271 0.292444 2.11961L4.17244 5.99961L0.292444 9.87961C0.199862 9.9722 0.126422 10.0821 0.0763168 10.2031C0.0262119 10.324 0.000423432 10.4537 0.000423431 10.5846C0.00042343 10.7155 0.0262119 10.8452 0.0763168 10.9662C0.126422 11.0871 0.199862 11.197 0.292444 11.2896C0.385026 11.3822 0.494936 11.4556 0.615901 11.5057C0.736865 11.5558 0.866514 11.5816 0.997444 11.5816C1.12837 11.5816 1.25802 11.5558 1.37899 11.5057C1.49995 11.4556 1.60986 11.3822 1.70244 11.2896L6.29244 6.69961C6.38515 6.6071 6.45869 6.49721 6.50888 6.37624C6.55906 6.25527 6.58489 6.12558 6.58489 5.99461C6.58489 5.86365 6.55906 5.73396 6.50888 5.61299C6.45869 5.49202 6.38515 5.38213 6.29244 5.28961L1.71244 0.709614C1.32244 0.319614 0.682444 0.319614 0.292444 0.709614Z" fill="white"/>
</svg>
