<svg width="24" height="24" viewBox="0 0 24 24" fill="none" xmlns="http://www.w3.org/2000/svg">
<path d="M15.6876 0H8.3244C1.5996 0 0 1.5996 0 8.3124V15.6756C0 22.3992 1.5876 24 8.3124 24H15.6756C22.3992 24 24 22.4124 24 15.6876V8.3244C24 1.5996 22.4124 0 15.6876 0ZM19.3752 17.124H17.6244C16.962 17.124 16.7628 16.5876 15.5748 15.3996C14.538 14.4 14.1 14.2752 13.8372 14.2752C13.4748 14.2752 13.3752 14.3748 13.3752 14.8752V16.4496C13.3752 16.8756 13.2372 17.1252 12.1248 17.1252C11.0452 17.0527 9.99831 16.7247 9.07032 16.1682C8.14233 15.6118 7.3598 14.8429 6.7872 13.9248C5.4278 12.2328 4.48193 10.247 4.0248 8.1252C4.0248 7.8624 4.1244 7.6248 4.6248 7.6248H6.3744C6.8244 7.6248 6.9864 7.8252 7.1628 8.2872C8.0124 10.788 9.462 12.9624 10.05 12.9624C10.2756 12.9624 10.374 12.8628 10.374 12.3V9.7248C10.2996 8.55 9.6756 8.4504 9.6756 8.0256C9.68362 7.91355 9.73496 7.80904 9.81875 7.73422C9.90253 7.65939 10.0122 7.62015 10.1244 7.6248H12.8748C13.2504 7.6248 13.3752 7.812 13.3752 8.262V11.7372C13.3752 12.1128 13.5372 12.2376 13.65 12.2376C13.8756 12.2376 14.0496 12.1128 14.4624 11.7C15.349 10.6187 16.0734 9.41409 16.6128 8.124C16.6679 7.96904 16.7723 7.83637 16.9098 7.74623C17.0474 7.6561 17.2107 7.61345 17.3748 7.6248H19.1256C19.65 7.6248 19.7616 7.8876 19.65 8.262C19.0134 9.68812 18.2257 11.0419 17.3004 12.3C17.112 12.588 17.0364 12.738 17.3004 13.0752C17.4744 13.338 18.0876 13.8504 18.5004 14.3376C19.1003 14.936 19.5984 15.6283 19.9752 16.3872C20.1252 16.8744 19.8744 17.124 19.3752 17.124Z" fill="url(#paint0_linear_307_396)"/>
<defs>
<linearGradient id="paint0_linear_307_396" x1="0" y1="0" x2="26.3646" y2="0.737676" gradientUnits="userSpaceOnUse">
<stop stop-color="#FFEBBA"/>
<stop offset="1" stop-color="#F0C966"/>
</linearGradient>
</defs>
</svg>
