<svg width="28" height="22" viewBox="0 0 28 22" fill="none" xmlns="http://www.w3.org/2000/svg">
<path d="M23.3332 0.333374H4.6665C3.60564 0.333374 2.58822 0.754801 1.83808 1.50495C1.08793 2.25509 0.666504 3.27251 0.666504 4.33337V17.6667C0.666504 18.7276 1.08793 19.745 1.83808 20.4951C2.58822 21.2453 3.60564 21.6667 4.6665 21.6667H23.3332C24.394 21.6667 25.4115 21.2453 26.1616 20.4951C26.9117 19.745 27.3332 18.7276 27.3332 17.6667V4.33337C27.3332 3.27251 26.9117 2.25509 26.1616 1.50495C25.4115 0.754801 24.394 0.333374 23.3332 0.333374ZM23.3332 3.00004L14.6665 8.96004C14.4638 9.07706 14.2339 9.13867 13.9998 9.13867C13.7658 9.13867 13.5359 9.07706 13.3332 8.96004L4.6665 3.00004H23.3332Z" fill="url(#paint0_linear_54_632)"/>
<defs>
<linearGradient id="paint0_linear_54_632" x1="0.666504" y1="0.333374" x2="29.9477" y2="1.35747" gradientUnits="userSpaceOnUse">
<stop stop-color="#FFEBBA"/>
<stop offset="1" stop-color="#F0C966"/>
</linearGradient>
</defs>
</svg>
