<svg width="25" height="25" viewBox="0 0 25 25" fill="none" xmlns="http://www.w3.org/2000/svg">
<path d="M13.785 0.00153792C14.6971 -0.00196218 15.6093 0.00720499 16.5211 0.0290366L16.7636 0.0377861C17.0436 0.0477856 17.3198 0.0602849 17.6536 0.0752842C18.9835 0.137781 19.891 0.34777 20.6872 0.656505C21.5121 0.973988 22.2071 1.40397 22.902 2.09893C23.5375 2.72341 24.0293 3.47879 24.3432 4.31257C24.652 5.10878 24.8619 6.01748 24.9244 7.34741C24.9394 7.67989 24.9519 7.95738 24.9619 8.23737L24.9694 8.47985C24.9916 9.3913 25.0012 10.303 24.9982 11.2147L24.9994 12.1472V13.7846C25.0025 14.6967 24.9929 15.6088 24.9707 16.5207L24.9632 16.7632C24.9532 17.0432 24.9407 17.3194 24.9257 17.6531C24.8632 18.9831 24.6507 19.8905 24.3432 20.6867C24.0303 21.5214 23.5384 22.2774 22.902 22.9016C22.277 23.537 21.5213 24.0287 20.6872 24.3428C19.891 24.6515 18.9835 24.8615 17.6536 24.924C17.3198 24.939 17.0436 24.9515 16.7636 24.9615L16.5211 24.969C15.6093 24.9912 14.6971 25.0008 13.785 24.9978L12.8526 24.999H11.2164C10.3043 25.0021 9.39215 24.9925 8.48029 24.9703L8.2378 24.9628C7.94108 24.952 7.64442 24.9395 7.34784 24.9253C6.01791 24.8628 5.11046 24.6503 4.313 24.3428C3.4789 24.0295 2.72338 23.5376 2.09936 22.9016C1.4632 22.277 0.970952 21.5211 0.656938 20.6867C0.348203 19.8905 0.138214 18.9831 0.0757173 17.6531C0.0617966 17.3565 0.0492972 17.0599 0.0382193 16.7632L0.0319697 16.5207C0.00892539 15.6088 -0.00149186 14.6967 0.000721214 13.7846V11.2147C-0.00276731 10.303 0.00639986 9.3913 0.0282199 8.47985L0.0369694 8.23737C0.0469689 7.95738 0.0594682 7.67989 0.0744675 7.34741C0.136964 6.01623 0.346953 5.11003 0.655688 4.31257C0.969887 3.47838 1.4631 2.7232 2.10061 2.10018C2.7242 1.46365 3.47924 0.970954 4.313 0.656505C5.11046 0.34777 6.01666 0.137781 7.34784 0.0752842L8.2378 0.0377861L8.48029 0.0315366C9.39172 0.00850379 10.3034 -0.00191347 11.2151 0.00028807L13.785 0.00153792ZM12.5001 6.25122C11.672 6.23951 10.8499 6.39249 10.0814 6.70128C9.31299 7.01007 8.61359 7.4685 8.02387 8.04994C7.43414 8.63138 6.96586 9.32423 6.64624 10.0882C6.32661 10.8522 6.16202 11.6721 6.16202 12.5003C6.16202 13.3284 6.32661 14.1483 6.64624 14.9123C6.96586 15.6763 7.43414 16.3692 8.02387 16.9506C8.61359 17.532 9.31299 17.9905 10.0814 18.2993C10.8499 18.6081 11.672 18.761 12.5001 18.7493C14.1576 18.7493 15.7472 18.0909 16.9193 16.9188C18.0913 15.7468 18.7498 14.1572 18.7498 12.4996C18.7498 10.8421 18.0913 9.2525 16.9193 8.08046C15.7472 6.90841 14.1576 6.25122 12.5001 6.25122ZM12.5001 8.75109C12.9982 8.74191 13.4931 8.83208 13.956 9.01634C14.4189 9.20059 14.8404 9.47523 15.1959 9.82422C15.5514 10.1732 15.8339 10.5895 16.0267 11.0489C16.2195 11.5083 16.3189 12.0014 16.319 12.4996C16.3191 12.9978 16.2199 13.491 16.0272 13.9505C15.8345 14.4099 15.5522 14.8263 15.1968 15.1754C14.8414 15.5245 14.42 15.7993 13.9572 15.9837C13.4944 16.1681 12.9994 16.2585 12.5013 16.2495C11.5068 16.2495 10.553 15.8544 9.84982 15.1512C9.14659 14.4479 8.75152 13.4942 8.75152 12.4996C8.75152 11.5051 9.14659 10.5514 9.84982 9.84813C10.553 9.14491 11.5068 8.74984 12.5013 8.74984L12.5001 8.75109ZM19.0622 4.37631C18.659 4.39245 18.2777 4.56399 17.9981 4.855C17.7185 5.14601 17.5623 5.53392 17.5623 5.93748C17.5623 6.34104 17.7185 6.72895 17.9981 7.01996C18.2777 7.31098 18.659 7.48251 19.0622 7.49865C19.4766 7.49865 19.874 7.33404 20.167 7.04103C20.4601 6.74802 20.6247 6.35061 20.6247 5.93623C20.6247 5.52185 20.4601 5.12445 20.167 4.83144C19.874 4.53843 19.4766 4.37381 19.0622 4.37381V4.37631Z" fill="url(#paint0_linear_306_383)"/>
<defs>
<linearGradient id="paint0_linear_306_383" x1="0" y1="0" x2="27.4632" y2="0.768426" gradientUnits="userSpaceOnUse">
<stop stop-color="#FFEBBA"/>
<stop offset="1" stop-color="#F0C966"/>
</linearGradient>
</defs>
</svg>
