<svg width="53" height="54" viewBox="0 0 53 54" fill="none" xmlns="http://www.w3.org/2000/svg">
<path d="M0 27.29C7.00437 27.29 13.7218 24.5075 18.6747 19.5547C23.6275 14.6019 26.41 7.88437 26.41 0.880005C26.4127 7.88356 29.196 14.5995 34.1482 19.5518C39.1005 24.504 45.8165 27.2874 52.82 27.29C45.8156 27.29 39.0981 30.0725 34.1453 35.0253C29.1925 39.9781 26.41 46.6956 26.41 53.7C26.4113 50.2314 25.7291 46.7966 24.4023 43.5918C23.0756 40.387 21.1303 37.475 18.6776 35.0224C16.225 32.5697 13.313 30.6244 10.1082 29.2977C6.90341 27.9709 3.46858 27.2887 0 27.29Z" fill="#D9BBFF"/>
</svg>
