<svg width="27" height="27" viewBox="0 0 27 27" fill="none" xmlns="http://www.w3.org/2000/svg">
<path d="M13.335 0C10.6976 0 8.1194 0.782084 5.92648 2.24735C3.73355 3.71262 2.02437 5.79526 1.01507 8.23191C0.00577784 10.6686 -0.2583 13.3498 0.256234 15.9365C0.770768 18.5233 2.0408 20.8993 3.90574 22.7643C5.77067 24.6292 8.14674 25.8992 10.7335 26.4138C13.3202 26.9283 16.0014 26.6642 18.4381 25.6549C20.8747 24.6456 22.9574 22.9365 24.4226 20.7435C25.8879 18.5506 26.67 15.9724 26.67 13.335C26.67 11.5838 26.3251 9.84979 25.6549 8.23191C24.9848 6.61404 24.0025 5.144 22.7643 3.90573C21.526 2.66746 20.056 1.68521 18.4381 1.01507C16.8202 0.34492 15.0862 0 13.335 0ZM17.5755 20.2052C17.5258 20.3298 17.4499 20.4423 17.3531 20.5351C17.2562 20.6279 17.1407 20.699 17.0141 20.7434C16.8875 20.7879 16.7529 20.8048 16.6193 20.7929C16.4856 20.781 16.3561 20.7407 16.2394 20.6746L12.6189 17.8609L10.296 20.0052C10.242 20.045 10.179 20.0706 10.1126 20.0797C10.0462 20.0888 9.97854 20.081 9.91591 20.0572L10.3613 16.0713L10.3746 16.0833L10.384 16.0047C10.384 16.0047 16.8981 10.0733 17.1635 9.82123C17.4328 9.56919 17.3435 9.51452 17.3435 9.51452C17.3595 9.20782 16.8621 9.51452 16.8621 9.51452L8.23037 15.0672L4.63659 13.8431C4.63659 13.8431 4.08452 13.6457 4.03251 13.2096C3.97784 12.7776 4.65392 12.5429 4.65392 12.5429L18.945 6.86486C18.945 6.86486 20.1199 6.34212 20.1199 7.2089L17.5755 20.2052Z" fill="url(#paint0_linear_306_376)"/>
<defs>
<linearGradient id="paint0_linear_306_376" x1="0" y1="0" x2="29.2977" y2="0.819742" gradientUnits="userSpaceOnUse">
<stop stop-color="#FFEBBA"/>
<stop offset="1" stop-color="#F0C966"/>
</linearGradient>
</defs>
</svg>
