<svg width="8" height="12" viewBox="0 0 8 12" fill="none" xmlns="http://www.w3.org/2000/svg">
<path d="M1.12252 0.7925C1.02982 0.885014 0.956271 0.994902 0.906089 1.11588C0.855908 1.23685 0.830078 1.36653 0.830078 1.4975C0.830078 1.62847 0.855908 1.75815 0.906089 1.87912C0.956271 2.0001 1.02982 2.10999 1.12252 2.2025L5.00252 6.0825L1.12252 9.9625C1.02994 10.0551 0.9565 10.165 0.906395 10.286C0.85629 10.4069 0.830502 10.5366 0.830502 10.6675C0.830502 10.7984 0.85629 10.9281 0.906395 11.049C0.9565 11.17 1.02994 11.2799 1.12252 11.3725C1.2151 11.4651 1.32501 11.5385 1.44598 11.5886C1.56694 11.6387 1.69659 11.6645 1.82752 11.6645C1.95845 11.6645 2.0881 11.6387 2.20907 11.5886C2.33003 11.5385 2.43994 11.4651 2.53252 11.3725L7.12252 6.7825C7.21523 6.68999 7.28877 6.5801 7.33895 6.45912C7.38914 6.33815 7.41497 6.20847 7.41497 6.0775C7.41497 5.94653 7.38914 5.81685 7.33895 5.69588C7.28877 5.5749 7.21523 5.46501 7.12252 5.3725L2.54252 0.7925C2.15252 0.4025 1.51252 0.4025 1.12252 0.7925Z" fill="#9E8C71"/>
</svg>
