<svg width="28" height="28" viewBox="0 0 28 28" fill="none" xmlns="http://www.w3.org/2000/svg">
<path d="M0.671855 27.3333L2.47452 20.7093C1.28671 18.6731 0.66265 16.3573 0.666522 14C0.666522 6.63596 6.63586 0.666626 13.9999 0.666626C21.3639 0.666626 27.3332 6.63596 27.3332 14C27.3332 21.364 21.3639 27.3333 13.9999 27.3333C11.6436 27.3371 9.32873 26.7135 7.29319 25.5266L0.671855 27.3333ZM9.18785 7.74396C9.01567 7.75465 8.84742 7.8 8.69319 7.87729C8.54855 7.9592 8.41652 8.06159 8.30119 8.18129C8.14119 8.33196 8.05052 8.46263 7.95319 8.58929C7.4604 9.23062 7.19533 10.0178 7.19985 10.8266C7.20252 11.48 7.37319 12.116 7.63985 12.7106C8.18519 13.9133 9.08252 15.1866 10.2679 16.3666C10.5532 16.6506 10.8319 16.936 11.1319 17.2013C12.603 18.4966 14.3562 19.4307 16.2519 19.9293L17.0105 20.0453C17.2572 20.0586 17.5039 20.04 17.7519 20.028C18.1402 20.0079 18.5193 19.9028 18.8625 19.72C19.0371 19.63 19.2075 19.5321 19.3732 19.4266C19.3732 19.4266 19.4305 19.3893 19.5399 19.3066C19.7199 19.1733 19.8305 19.0786 19.9799 18.9226C20.0905 18.808 20.1865 18.6733 20.2599 18.52C20.3639 18.3026 20.4679 17.888 20.5105 17.5426C20.5425 17.2786 20.5332 17.1346 20.5292 17.0453C20.5239 16.9026 20.4052 16.7546 20.2759 16.692L19.4999 16.344C19.4999 16.344 18.3399 15.8386 17.6319 15.516C17.5572 15.4834 17.4772 15.4649 17.3959 15.4613C17.3046 15.4519 17.2125 15.4622 17.1255 15.4914C17.0386 15.5206 16.9589 15.5681 16.8919 15.6306V15.628C16.8852 15.628 16.7959 15.704 15.8319 16.872C15.7765 16.9463 15.7003 17.0025 15.6129 17.0334C15.5255 17.0642 15.4309 17.0684 15.3412 17.0453C15.2543 17.0221 15.1692 16.9927 15.0865 16.9573C14.9212 16.888 14.8639 16.8613 14.7505 16.812L14.7439 16.8093C13.9811 16.4763 13.2748 16.0264 12.6505 15.476C12.4825 15.3293 12.3265 15.1693 12.1665 15.0146C11.642 14.5123 11.1848 13.944 10.8065 13.324L10.7279 13.1973C10.6714 13.1122 10.6257 13.0204 10.5919 12.924C10.5412 12.728 10.6732 12.5706 10.6732 12.5706C10.6732 12.5706 10.9972 12.216 11.1479 12.024C11.2733 11.8644 11.3904 11.6984 11.4985 11.5266C11.6559 11.2733 11.7052 11.0133 11.6225 10.812C11.2492 9.89996 10.8625 8.99196 10.4652 8.09063C10.3865 7.91196 10.1532 7.78396 9.94119 7.75863C9.86919 7.75063 9.79719 7.74263 9.72519 7.73729C9.54613 7.7284 9.3667 7.73151 9.18785 7.74396Z" fill="url(#paint0_linear_53_622)"/>
<defs>
<linearGradient id="paint0_linear_53_622" x1="0.666504" y1="0.666626" x2="29.9606" y2="1.48627" gradientUnits="userSpaceOnUse">
<stop stop-color="#FFEBBA"/>
<stop offset="1" stop-color="#F0C966"/>
</linearGradient>
</defs>
</svg>
